<svg xmlns="http://www.w3.org/2000/svg" viewBox="0 0 1600 900"><defs><linearGradient id="g" x2="1" y2="1"><stop stop-color="#17372f"/><stop offset="1" stop-color="#d7ba78"/></linearGradient><linearGradient id="w" y2="1"><stop stop-color="#f5f0e8" stop-opacity=".18"/><stop offset="1" stop-color="#f5f0e8" stop-opacity="0"/></linearGradient></defs><rect width="1600" height="900" fill="url(#g)"/><circle cx="1280" cy="170" r="210" fill="#f4d9a4" opacity=".22"/><path d="M0 675L220 570l120 30 130-150 180 120 165-215 210 210 180-120 180 165 235-70v360H0z" fill="#0d2730" opacity=".9"/><rect x="270" y="165" width="480" height="310" rx="28" fill="#f7f3eb" opacity=".93"/><rect x="325" y="220" width="370" height="28" rx="14" fill="#1b5a47" opacity=".8"/><rect x="325" y="282" width="270" height="18" rx="9" fill="#829089"/><rect x="325" y="322" width="320" height="18" rx="9" fill="#829089"/><path d="M1130 260h120v335h-120zM1040 405h300v190h-300z" fill="#dbe4df" opacity=".58"/><rect x="0" y="0" width="1600" height="900" fill="url(#w)"/></svg>
